<?xml version="1.0" encoding="utf-8"?>
<!-- Generator: Adobe Illustrator 19.1.0, SVG Export Plug-In . SVG Version: 6.00 Build 0)  -->
<svg version="1.1" id="Layer_1" xmlns="http://www.w3.org/2000/svg" xmlns:xlink="http://www.w3.org/1999/xlink" x="0px" y="0px"
	 viewBox="-143 -206 512 512" style="enable-background:new -143 -206 512 512;" xml:space="preserve">
<style type="text/css">
	.st0{fill:#CCCCCC;}
	.st1{fill:#3C83BA;}
	.st2{opacity:0.2;}
	.st3{fill:#7D868C;}
	.st4{fill:#161414;}
	.st5{fill:url(#SVGID_1_);}
	.st6{fill:#FFD8A7;}
	.st7{fill:#F7F7F7;}
	.st8{fill:#DCAD84;}
	.st9{fill:url(#SVGID_2_);}
	.st10{fill:#DBDBDA;}
	.st11{fill:#C1C1BF;}
	.st12{fill:#159BD7;}
	.st13{fill:#153860;}
	.st14{fill:#1380B0;}
	.st15{fill:#FFFFFF;}
	.st16{fill:url(#SVGID_3_);}
	.st17{fill:#472913;}
	.st18{fill:#5B3E27;}
	.st19{fill:#693521;}
	.st20{fill:#5B3F26;}
	.st21{fill:url(#SVGID_4_);}
	.st22{fill:url(#SVGID_5_);}
	.st23{fill:url(#SVGID_6_);}
	.st24{fill:#45413E;}
	.st25{fill:#232222;}
	.st26{fill:#E8E7E7;}
</style>
<g>
	<g>
		<path class="st0" d="M363.8-62.5c-7.4,0-14.2,0-21.4,0c0-38.9,0-77.5,0-116.6c-39.1,0-77.8,0-116.9,0c0-7.5,0-14.4,0-21.7
			c1.5-0.1,3.1-0.2,4.7-0.2c40.3,0,80.7,0,121,0c8.7,0,12.7,3.8,12.7,12.4c0,40.8,0,81.7,0,122.5C363.9-65.1,363.8-64,363.8-62.5z"
			/>
		<path class="st0" d="M-137.8,162c7.5,0,14.3,0,21.6,0c0,38.9,0,77.6,0,116.8c39.2,0,77.8,0,116.8,0c0,7.3,0,14.2,0,21.9
			c-1.6,0-3.3,0-5.1,0c-40,0-80,0-120,0c-9.7,0-13.4-3.6-13.4-13.2c0-40,0-80,0-120C-137.8,165.8-137.8,164.1-137.8,162z"/>
		<path class="st0" d="M-115.9-62.5c-7.7,0-14.5,0-21.8,0c0-2,0-3.8,0-5.6c0-39.8,0-79.7,0-119.5c0-9.9,3.6-13.5,13.6-13.5
			c39.8,0,79.7,0,119.5,0c1.7,0,3.3,0,5.4,0c0,7.2,0,14.1,0,21.5c-38.6,0-77.3,0-116.6,0C-115.9-140.3-115.9-101.6-115.9-62.5z"/>
		<path class="st0" d="M342.3,279.1c0-39.5,0-78.1,0-117c7.3,0,14.2,0,21.4,0c0.1,1.7,0.2,3.4,0.2,5c0,39.8,0,79.7,0,119.5
			c0,10.7-3.4,14.1-14,14.1c-39.8,0-79.7,0-119.5,0c-1.5,0-3,0-4.9,0c0-7.1,0-14,0-21.5C264.1,279.1,302.8,279.1,342.3,279.1z"/>
	</g>
</g>
<g>
	<g id="Layer_2">
		<g id="Layer_2-2">
			<path class="st1" d="M56.1,57.6c0,3.3,0,6.6,0,9.9c0,0.8,0,0.8,0.7,1c3.7,1.2,5.7,5.2,4.4,8.8c-0.9,2.7-3.4,4.5-6.2,4.8
				c-3.9,0.2-7.2-2.7-7.4-6.5c-0.2-3.2,1.8-6.1,4.8-7c0.7-0.2,0.7-0.2,0.7-1c0-6.7,0-13.3,0-20c0-0.8,0-0.8-0.8-1
				c-3.7-1.2-5.7-5.2-4.4-8.8c0.8-2.4,2.8-4.2,5.3-4.7c3.8-0.8,7.5,1.7,8.2,5.5c0.1,0.4,0.1,0.8,0.1,1.2c0,0.6-0.1,1.2-0.2,1.7
				c-0.1,0.6-0.1,0.6,0.4,1l4.1,2.4l13.6,7.9c0.1,0.1,0.3,0.2,0.5,0.3c0.3,0.3,0.7,0.3,1,0L81,53c2.6-2.3,6.6-2.4,9.3,0
				c0.6,0.5,0.6,0.5,1.2,0.1l18.1-10.5c0.6-0.3,0.6-0.3,0.4-1c-0.8-3.8,1.5-7.5,5.3-8.3c3.8-0.8,7.5,1.5,8.3,5.3
				c0.8,3.5-1.2,7.1-4.7,8.1c-0.4,0.1-0.6,0.3-0.6,0.8c0,6.8,0,13.6,0,20.3c0,0.6,0.3,0.7,0.7,0.8c3.7,1.2,5.6,5.1,4.4,8.8
				c-0.3,0.9-0.8,1.8-1.4,2.5c-2.6,2.9-7,3.2-9.9,0.6c-1.1-1-1.9-2.3-2.2-3.7c-0.8-3.5,1.2-7,4.6-8.1c0.7-0.2,0.7-0.2,0.7-1
				c0-6.7,0-13.4,0-20.1c0-0.8,0-0.8-0.8-1c-0.9-0.3-1.7-0.8-2.4-1.4c-0.5-0.4-0.5-0.4-1-0.1l-13.2,7.7l-5,2.9
				c-0.6,0.3-0.6,0.3-0.5,1c0.8,3.2-1,6.6-4.1,7.9c-0.3,0.1-0.6,0.5-0.6,0.8c0,3.5,0,7,0,10.5c-0.1,0.4,0.2,0.8,0.6,1
				c2.1,0.9,3.5,2.8,3.9,5c0.7,3.8-1.8,7.4-5.6,8.1c-3.8,0.7-7.4-1.8-8.1-5.6c0-0.1,0-0.1,0-0.1c-0.6-3,1-5.9,3.7-7.3
				c0.3-0.1,0.6-0.3,0.8-0.3c0.3-0.1,0.4-0.3,0.3-0.6c0-0.1,0-0.3,0-0.4c0-3.4,0-6.7,0-10.1c0.1-0.5-0.2-1-0.7-1.2
				c-3-1.4-4.6-4.6-3.9-7.9c0.1-0.8,0.1-0.8-0.5-1.1c-6.1-3.5-12.1-7-18.2-10.5c-0.3-0.2-0.8-0.2-1,0.1l0,0
				c-0.8,0.7-1.6,1.2-2.6,1.5c-0.8,0.2-0.6,0.3-0.6,0.9C56.1,51,56.1,54.3,56.1,57.6z"/>
			<path class="st1" d="M77.9,21.7c0.1,5.4,4.2,8.1,8,8.1c4.3,0,7.9-3.4,7.9-7.8c0-0.1,0-0.3,0-0.5c0.3-0.1,0.4,0.1,0.6,0.2l15.2,9
				c0.2,0.1,0.3,0.2,0.6,0.4c0.6,0.5,0.6,0.6,0,1.1c-0.9,0.8-1.6,1.7-2.1,2.8c-0.3,0.6-0.3,0.6-0.9,0.3c-4-1.8-7.9-3.6-11.9-5.4
				c-2.1-0.8-4.5-0.2-6.2,1.4c-0.8,0.9-1.1,2.1-1,3.3c0,4.2,0,8.3,0,12.5v1c-0.8-0.3-1.6-0.3-2.4-0.3s-1.7,0.1-2.4,0.3
				C83,47.8,83,47.4,83,47.2c0-4.1,0-8.3,0-12.3c0-0.3,0-0.7-0.1-1c-0.2-2.3-2.1-4-4.3-4.1c-0.9-0.1-1.7,0.1-2.6,0.4
				c-3.6,1.7-7.2,3.4-10.8,5.1c-0.7,0.3-0.7,0.3-1.1-0.3c-0.6-1-1.4-2-2.3-2.8c-0.4-0.3-0.4-0.5,0-0.8c0.2-0.1,0.3-0.3,0.6-0.4
				l14.9-8.8C77.5,21.9,77.7,21.8,77.9,21.7z"/>
			<path class="st1" d="M79.7,22.2c-0.1-2.8,1.9-5.2,4.6-5.9c3.3-0.9,6.6,1.1,7.5,4.3c0,0.1,0.1,0.3,0.1,0.3c0.5,2.8-1,5.5-3.7,6.6
				c-3.2,1.3-6.8-0.1-8.1-3.3c-0.1-0.3-0.2-0.6-0.3-0.9C79.7,23,79.7,22.6,79.7,22.2z"/>
			<g class="st2">
				<path class="st3" d="M248.8,214.1c0,3.1-3.6,5.1-21.5,6.1c-7.7,0.4-21,16.4-49.1,11.8c-29.2-4.8-38.7-10.4-38.7-15.4
					c0-5,19.4-6.6,49-6.6S248.8,209,248.8,214.1z"/>
			</g>
			<path class="st4" d="M163.1,203.5c0,0-14,2.8-14.3,10.5c-0.3,7.8,15.4,17.7,46.7,11.2L163.1,203.5z"/>
			
				<linearGradient id="SVGID_1_" gradientUnits="userSpaceOnUse" x1="169.5493" y1="-1041.8827" x2="216.7445" y2="-985.0912" gradientTransform="matrix(1 0 0 1 0 1200)">
				<stop  offset="0" style="stop-color:#3B260E"/>
				<stop  offset="1" style="stop-color:#2C1400"/>
			</linearGradient>
			<path class="st5" d="M182.8,144.8L148,155.3c0,0-0.7,12.1,13.5,43.6c0,0-2.2,3.9-2.6,5.7c0,0,8.2,18.4,22.5,22.2s24-0.6,23.5-2.8
				c-0.5-2.8-0.8-5.7-1-8.5c0,0,9,1.4,11.4,1.2c3.6-0.3,8.7-2.2,7.3-5.6c-1.4-3.4-0.1-10.3,4.7-36.4
				C231.9,150.2,182.8,144.8,182.8,144.8z"/>
			<path d="M204,215.4c-0.5-4-0.8-8-0.8-12c0.1-5.4,1-8.1,1.3-10.1c-0.3,3.9-0.3,7.8-0.1,11.7c0.3,3.9,1.1,10.5,1.1,10.5L204,215.4z
				"/>
			<path class="st6" d="M139.9,110.9c0,0-11.9-7-13.2-13.4c-1.4-6.5,6.8-3.7,7.9-5.4c1-1.7-12.3-5.1-4.4-13.6
				c3.1-3.4,23.9-3.1,26.3,13.3C160.7,121,139.9,110.9,139.9,110.9z"/>
			<path class="st7" d="M119.7,80.7l10.3,12.3c0,0,3.5,0.6,5.1-1.2c1-1.2-8.8-12.1-11.5-15c-0.6-0.7-1.5-1.1-2.4-1.2
				c-1.1-0.1-2.3,0.4-2.4,2.6C118.8,79,119.1,80,119.7,80.7z"/>
			<path class="st8" d="M126.7,97.4c0,0,5.7,8.6,16,8.9l2.3,6.3C145,112.7,129.9,108.6,126.7,97.4z"/>
			
				<linearGradient id="SVGID_2_" gradientUnits="userSpaceOnUse" x1="-125.4131" y1="1078.3263" x2="-125.6681" y2="1060.423" gradientTransform="matrix(0.9426 -0.334 0.334 0.9426 -76.0055 -952.2022)">
				<stop  offset="0" style="stop-color:#715034"/>
				<stop  offset="1" style="stop-color:#996733"/>
			</linearGradient>
			<path class="st9" d="M154,84.6c0,0-8.7-2-11,10.8c-2.3,12.8-0.9,17,8.2,24.2c9.1,7.2,24.1,13.9,24.1,13.9l13-32.8L154,84.6z"/>
			<path class="st10" d="M169.3,98.5l26.3,5l-18.1,13.8c0,0-27.9,26.9-25.6,16.7C154.3,123.7,169.3,98.5,169.3,98.5z"/>
			<path class="st11" d="M154.5,130c0,0,9.4-14,19-19.1l-0.3,1.6C173.1,112.4,157.3,126.9,154.5,130z"/>
			<path class="st12" d="M156.2,122.8c0,0,7.3-13.6,15.2-18.3c7.9-4.6,0.3,1.2,0.3,1.2l9.1,2.2c0,0-17,8.3-26.3,22.1"/>
			<path class="st13" d="M164.5,108.4c0,0-16.5,34.2-17.2,46.5c0,0,0.6-22,15.2-45.5L164.5,108.4z"/>
			<path class="st14" d="M169.1,106c0,0,1.9,2.6,5,2.2l0.5-1.2l-3.3-2.6L169.1,106z"/>
			<polygon class="st15" points="169.7,97.4 160.8,111.1 174.1,103.2 			"/>
			<path class="st13" d="M194.4,103.3c0,0-26.3,5.1-41.2,26.6c0,0-2.8,2-6.3,24.7c0.5,3.4,15.1,9.2,39.2-2.1
				C210.6,141.2,194.4,103.3,194.4,103.3z"/>
			<path class="st15" d="M177.5,98.1c0,0-5.4,8.6-5.9,17.9l35.6-18.8L177.5,98.1z"/>
			<path class="st12" d="M177.6,105.3c-0.6,1.5-2.9,2-5.2,1.2s-3.7-2.8-3.2-4.3c0.9-2.4,2.9-2,5.2-1.2
				C176.8,101.9,178.5,103,177.6,105.3z"/>
			
				<linearGradient id="SVGID_3_" gradientUnits="userSpaceOnUse" x1="173.8711" y1="-1018.8492" x2="235.3572" y2="-1086.9948" gradientTransform="matrix(1 0 0 1 0 1200)">
				<stop  offset="0" style="stop-color:#715034"/>
				<stop  offset="1" style="stop-color:#996733"/>
			</linearGradient>
			<path class="st16" d="M212.9,94.6c2.9,3.2,5.4,6.6,7.6,10.3c3,5.7,3.3,19.9,6.4,24.5c3.1,4.6,14.8,22.3,18.2,26.9
				c0,0-9.2,11.5-9.2,13.6c0,2.1-12.3,19.4-36.6,21.7l-19.2-38.1c0,0-6.6-31,12.3-51.9C211.3,80.7,212.9,94.6,212.9,94.6z"/>
			<path class="st17" d="M198.6,94.4l-14.8,22.7l-4.6,10.2l3.9,20.1l2.7-2.7l3.7-11.9l-5.4-6l7.1-5c0,0-0.1-10.2,10.5-27.4
				L198.6,94.4"/>
			<path class="st18" d="M199.2,95.2l-1.1,5c5.5-0.9,10.9-2.3,16.1-4.3l-1.2-1.3L199.2,95.2z"/>
			<path class="st19" d="M179.1,156.4c0,0-11.1-35.6,18.3-60.8l1.9-0.6c0,0-9.4,12.5-9.9,25.4l-7.2,5.4l4.3,6.7
				c0,0-5.9,15.9-1.3,30.7L179.1,156.4z"/>
			<path class="st8" d="M174.7,158.4c0,0-2.8,7.7-0.3,14.8c1.7,4.3,4.5,8.1,8.4,10.8l9-5.4L174.7,158.4z"/>
			<path d="M192.5,178.8l6.6,11.9c0,0,13.6,0.6,26.9-9.4c0,0-7.9,10.2-27.7,10.5L192.5,178.8z"/>
			<path class="st20" d="M205.2,184.4c1,0.3,19-6.5,18.9-11l-7.1-11l-19.2,8.2C197.9,170.6,204.2,184.1,205.2,184.4z"/>
			
				<linearGradient id="SVGID_4_" gradientUnits="userSpaceOnUse" x1="193.9106" y1="-359.7648" x2="219.244" y2="-359.7648" gradientTransform="matrix(0.9946 -0.1035 0.1035 0.9946 42.2935 552.0866)">
				<stop  offset="0" style="stop-color:#715034"/>
				<stop  offset="1" style="stop-color:#996733"/>
			</linearGradient>
			<path class="st21" d="M205,184c1.2,0.1,18.3-6.8,18.2-11.2l-7-11l-18.8,8.1C197.4,169.9,203.8,183.9,205,184z"/>
			<path class="st19" d="M196.1,167.5c0,0,13.6-5,18.5-8.9c0,0,1.9,3,2.4,3.9c-3.2,3.1-15.2,8.3-18.9,9L196.1,167.5z"/>
			
				<linearGradient id="SVGID_5_" gradientUnits="userSpaceOnUse" x1="172.4944" y1="-1020.1076" x2="233.8909" y2="-1088.1498" gradientTransform="matrix(1 0 0 1 0 1200)">
				<stop  offset="0" style="stop-color:#715034"/>
				<stop  offset="1" style="stop-color:#996733"/>
			</linearGradient>
			<path class="st22" d="M188.8,138c0.1,1.8-0.3,3.6-1.2,5.2c-0.8,1.4-2.8,1.9-3.9,3.5c-2.8,4-6.3,8.1-9.8,9.2
				c0,0,2.3,23.5,15.1,25.1c0,0,10.8-5.5,19.7-17.9c9-12.6,8.5-33.5,8.5-33.5L188.8,138z"/>
			
				<linearGradient id="SVGID_6_" gradientUnits="userSpaceOnUse" x1="174.5291" y1="-1046.0186" x2="221.7243" y2="-989.2272" gradientTransform="matrix(1 0 0 1 0 1200)">
				<stop  offset="0" style="stop-color:#3B260E"/>
				<stop  offset="1" style="stop-color:#2C1400"/>
			</linearGradient>
			<path class="st23" d="M188.2,180.8c3.9-2.1,7.7-4.6,11.2-7.3l-9.2,7.5L188.2,180.8z"/>
			<path class="st18" d="M183.5,147.1c0,0,2.9-2.6,4.8-3.4c0,0,1.2-6.3,3.2-9.4c0,0-3.4,4.4-4.3,8.7
				C185.7,144,184.4,145.4,183.5,147.1z"/>
			<path class="st18" d="M217.2,129.5c0,0-2.3,13.6-3.9,16.1l0.3,3.3C213.6,148.9,216.7,144,217.2,129.5z"/>
			<path class="st24" d="M199.3,173.5c0,0-7.5-4.4-2.4-21.9c5.1-17.4,15.9-11.9,17.7-5.4l0,0C214.7,146.2,213.5,163.4,199.3,173.5z"
				/>
			<path class="st7" d="M145.7,67.2c-2.8-8.9-9.3-6.8-13.6-4.3s-2.4-2.4,2.7-3.4c0,0-4.5-4-13.9,1.4c0,0,1.7-5,9.4-9.7
				c0,0-10.3,6.4-12.3,7.5c-1.8,1,3.7-6.8,3.7-6.8l-8.5-0.1c0,0-0.8-12.3,12.5-16.1c14.6-4.2-3-2.2-3-2.2s-0.3-14-13.6-12.9
				c0,0,10.5-31.4,37.6-30.5c0,0-2.3-17.2-11.9-16.8c0,0,3.4-4.8,6.1-3.9l-6.8-5.2c0,0,19.9-9.3,35,13.8c0,0,11.4-28.3,12-32.2
				s1.6-7.9,0.6-10.5c0,0,8.5,3.1,7.9,7.1c0,0,2-3.2-0.6-5.6c0,0,14.1,8.6,11.6,15.6l2.1-5.9c0,0,4.2,3.1,4.1,6
				c-0.1,2.9,2.2-6.3,2.2-6.3s14.2,8.3,11.4,30.8c0,0,48.5-8.3,54.9,33.8l-9.7-3.4c0,0,7.2,4.5,7.4,9.7c0,0,13.2,5.8,6.5,36.4
				c0,0-2.6-16.2-9.6-17c0,0,12.4,7.9,8.5,36.1c0,0-4.1-5.1-8.3-7.2c0,0,8.8,7.9,2.6,23.1c0,0-1-4.3-8.5-6.3l0.6,3.2l-12.1-3.9
				c0,0-19.2-1.6-25.2,3.4c0,0,0.6-7.7-6.1-4.8L145.7,67.2z"/>
			<path class="st6" d="M235.9,68.7c-4,16.4-17.9,31.6-40.7,27.2c-4.7-0.9-9.7-0.5-14.6-1.7c-19.9-4.9-37.2-5.1-34.7-34.2
				c0-0.5-0.1-1-0.3-1.4c-0.6-4.1-3.2-8.5-2.2-12.6c5-20.3,30.8-32,56.4-25.7c4.5,1.1,9,2.8,13.2,5
				C230.4,34.5,239.9,52.1,235.9,68.7z"/>
			
				<ellipse transform="matrix(-0.2384 0.9712 -0.9712 -0.2384 256.2664 -73.6478)" class="st25" cx="157" cy="63.7" rx="5.8" ry="3.9"/>
			
				<ellipse transform="matrix(-0.2384 0.9712 -0.9712 -0.2384 308.0162 -101.9563)" class="st25" cx="194" cy="69.8" rx="5.8" ry="3.9"/>
			<path class="st7" d="M145.7,67.2c0,0-0.9-23.4,10.3-26.3c0,0,2.1,5.3,4.3,5.9c0.4,0.1,2.4-13.6,10.8-15.6c0,0,22.4,17.4,27,12.4
				c-0.7-0.8-9-7-7.4-11c0.9-2.2,20.5,3.9,23.4,25.6c1.2,1.2,4.5-1.7,6.6-6.8c3.9-9.6,1.4,17.7-2.1,22.8c-0.3,0.3,5.3-0.9,7.7-2.8
				c2.3-1.9-5.9,14.2-6.8,16c-0.9,1.8,17.2-3.4,21.6-19.2c3.4-12.5-6.1-33.8-15.5-42.5c-7.7-7-28.7-18.8-54.3-15.6
				c-30.6,3.8-33.4,33.1-33.6,37.2C137.6,50.1,144.7,66.7,145.7,67.2z"/>
			<path class="st26" d="M195.9,61c0,0,8.7,1.4,11.9,6.3c0,0,6.3-1.7,0.4-5.9c0,0,2.8-0.1,3,0.8c0,0,0.8-4.1-5.8-4.9
				c0,0,4.3-0.6,4.3,0.5c0,0-4.8-7.1-9.8-2.2c0,0,2.1-3,3.2-2.8s-0.5-0.3-0.5-0.3s-11.6-0.1-9.3,7.5L195.9,61z"/>
			<path class="st26" d="M146.4,62.8c-0.2-2-8-5-14.4,0.2c0,0,10.8-3,13.7,5.4L146.4,62.8z"/>
			<path class="st26" d="M119.6,49c12.8-5,18.3-0.1,18.3-0.1c-5-1.8-20,9.8-20,9.8c18.3-9.8,28.9-2.8,28.9-2.8l2.1-7.4
				C131.8,36.5,119.6,49,119.6,49z"/>
			<path class="st6" d="M156,41c0,0-16.9,4.5-8.7,35.2L156,41z"/>
			<path class="st26" d="M121.3,26.6c0,0,21.2-8.8,33.4,13.4C154.6,40,145.2,25.1,121.3,26.6z"/>
			<path class="st26" d="M224.4,85.9c0,0,11.2-8.3,19.6-9c4.3-0.4,9.9-0.4,14.4,5.3c0.5,0.6-0.2,3.2-0.2,3.2l-5.5-3.9
				c0,0-23.4,3.4-27.9,5C221.6,87.6,224.4,85.9,224.4,85.9z"/>
			<path class="st26" d="M238.3,68.8c3,0.3,9.8,0.8,13.6-7.9s3.6-9.8,3.6-9.8s0.8,14.7-2.1,16.9c0,0,14.4,4,12.8,20.4
				c0,0-9.9-16.9-28.7-16.6c-7.9,0.1-10.1,3.2-12.1,3.9l1.5-4.6C226.8,71.2,232.6,68.2,238.3,68.8z"/>
			<path class="st26" d="M278.4,72.6c0,0-2.3-19.3-9.4-20.3C269,52.3,280.5,49.6,278.4,72.6z"/>
			<path class="st26" d="M231.3-15.8c0,0,34.4-3.7,44,26.7C275.2,10.8,262.1-15.2,231.3-15.8z"/>
			<path class="st26" d="M279.6,52.9c0,0,3.9-28.1-9.1-31.6c0.3-5-1.4-9.8-4.5-13.6c0,0,6.9,4.1,7,9.4C273,17.1,286.6,23,279.6,52.9
				z"/>
			<path class="st26" d="M219.9-14.7c0,0-1.4-29.3-10.8-39.1c0,0,15.1,8.5,11.4,30.8L219.9-14.7z"/>
			<path class="st26" d="M142.7-34.5c0,0,30.5-4.1,39.4,38.1C182,3.5,173.3-24.6,142.7-34.5z"/>
			<path class="st26" d="M141.4-27.1c0,0,10.5,0.5,11.6,14.1C153-13,157.7-30.7,141.4-27.1z"/>
			<path class="st26" d="M109,20.5c0,0,28.2-28.6,49.4-26.8C158.4-6.3,136.3-18.5,109,20.5z"/>
			<path class="st26" d="M169.4,30.5c-8.1-4.5-26.8-18.6-20.5-30.8c0,0-11.6,12.1,5.9,23c0,0-10.4-4.9-15.4-2.1
				c0,0,17.5,5.8,27.2,13.4c0,0,2.2-2.2,4.5-2.7C171.1,31.2,169.8,30.7,169.4,30.5z"/>
			<path class="st26" d="M198.2,43.6c0,0-31-23.5-8.9-21.6C189.3,22,151.6,10.4,198.2,43.6z"/>
			<path class="st26" d="M198.2,43.6c0,0-3,5.8-23.6-9.9C174.6,33.8,190.9,43.6,198.2,43.6z"/>
			<path class="st26" d="M181.6-64.7c0,0,2.3,7.2-12.5,42.7C169.1-22,195.5-50.9,181.6-64.7z"/>
			<path class="st26" d="M209.3,9.7c0,0,14.6-10.4,24.5-3.8c0,0-7.2-9.8-19.7-6.4c0,0,4.4-2.6,8.5-3c0,0-7.2-1.4-9.9-0.1
				c0,0-2.5-13.4-28.3-11.6C184.4-15.2,211.3-13.1,209.3,9.7z"/>
			<path class="st26" d="M258.1,37.7c-3.5-2.1-7.8-2.6-12.1-2.1c2.2-2.2,4.8-5.9,6.7-11.6c4.3-13-11.3-11.6-11.3-11.6
				s11.6,0.9,8.7,10.3c-2.9,9.4-21.2,15.9-21.2,15.9c2.3-5.7,3.3-12.3-1.9-16.5c0,0,2.6,11.4-7.7,28.5c3.7-32.3-16.3-34.1-16.3-34.1
				c16,6.8,13.9,35.2,13.5,38.4c-0.8,1-1.5,2.1-2.3,3.2c0,0,2.1,3.6,8.3-8.7l0.3,6C239.2,31.4,266.1,45,266.1,45
				C264.5,41,260.4,39.1,258.1,37.7z M216.6,54.9l2.6-4.1C218.5,52.1,217.6,53.5,216.6,54.9L216.6,54.9z"/>
			<path class="st19" d="M155.4,122.7c0,0,8.5-18.5,13.5-21.5l-2.2-1.7C166.6,99.5,157.6,113,155.4,122.7z"/>
			<path class="st26" d="M209.9-15.2c-4.8-6.7-10.2-14.5-10.5-20.2c-0.1-2.4,1.4-9.6,1.4-9.6c2.2-6.3-1.5-13.2-11.8-18.2
				c0,0,8.4,6.1,5.6,24.3c-1.6-2.6-5.6-6-5.6-6c5.2,5.3,2.4,10,4.1,13.6C194.6-27.8,209.9-15.2,209.9-15.2z"/>
			<path class="st26" d="M165.6,76.6c-4.8-5.2-20.9-11.2-23.2,16c0,0,1.8-3.8,4.5-3.1c0,0-2.2,6.1,1,8.1c0,0,2.8-6.3,5.2-4.4
				c0,0,3.6,8.9,7.9,10.2c0,0-0.1-5.9,2.7-5.5l3.4,7.4l5.5-6.8c0,0,2.5,3.9,0.3,5.1c0,0,3.9,1,5.6-3.5c0,0,4.7,2.6,3,6.9
				c0,0,3.9-1.2,4.9-6.7l3.3,6.1l2.6-8.7c0,0,6.5,3.8,6.1,6.8c0,0,3.2-7.3-1.7-13.5l6.8,2.4c0,0-12.3-20.2-26.5-12.9
				C174.6,81.8,171.8,83.4,165.6,76.6z"/>
			<path class="st10" d="M182.4,87.9c0,0,17.4,3.3,16,16.1C198.4,104,193.8,91.1,182.4,87.9z"/>
			<path class="st10" d="M160.8,103.4c0,0,2.2-14.2,7.4-15.1C168.2,88.3,157.3,90.1,160.8,103.4z"/>
			<path class="st10" d="M181.3,107.1c0,0,4.3-8.1-0.1-11.9C181.3,95.2,189.9,99.2,181.3,107.1z"/>
			<path class="st10" d="M166.9,105.3c0,0,5.9-8.8,5.7-13.1c0.6,1,0.9,2,0.9,3.1C173.6,97.8,172.4,101.4,166.9,105.3z"/>
			<path class="st10" d="M172.2,87.9c0,0,3,9.2-0.1,10.9l-0.1,1.3c1,0.4,1.5,1.4,1.4,2.4C173.5,104.2,177.8,96.3,172.2,87.9z"/>
			<path class="st10" d="M160.7,103c0,0-5.7-12.7,1.3-16.9c0,0-12.3,7.2-1.2,17.4"/>
			<path class="st10" d="M147.8,97.6c0,0,4.2-8.6,8.5-8.3C156.3,89.4,146.7,85.4,147.8,97.6z"/>
			<path class="st10" d="M142.3,92.6c0,0,2.4-4.4,8.2-3.3l2.3-0.6C152.8,88.7,145,83.8,142.3,92.6z"/>
			<path class="st10" d="M168.3,83.5c0,0-14.5-19-22.7,0.2c0,0,5.1-7.2,10-5.4c0,0-2.9,0.6-3.3,3C152.2,81.3,158,76.7,168.3,83.5z"
				/>
			<path class="st10" d="M174.7,83.4c0,0,13.9-5.9,21.6,4.8C196.4,88.2,190.4,82.3,174.7,83.4z"/>
			<path class="st26" d="M164.7,53.3c0,0,2.5-7.2-3.2-7.8c0,0,2.1,1.9,1.2,3c-0.8,1-0.6,0.7-0.6,0.7s-1.4-7.9-11.9-3.2
				c1,0.1,2,0.4,2.8,1c0,0-4.2-0.6-4.8,2.3c0,0,1.9,0.1,2.5,1c0,0-4.3,1.9-0.4,6.1C150.3,56.5,159.7,51.4,164.7,53.3z"/>
			<path class="st7" d="M155.3,39.9l0.1,0.3c0.6,1.3,2.8,6.1,4.7,7.7c0,0,2.5-10.9,6.5-14.1"/>
		</g>
	</g>
</g>
</svg>
